<svg xmlns="http://www.w3.org/2000/svg" viewBox="0 0 100 100">
    <path fill="#8e6c88" d="M35,35 C30,30 20,25 15,30 C10,35 15,45 20,50 C25,55 30,50 35,45 C40,40 45,45 50,50 C55,45 60,40 65,45 C70,50 75,55 80,50 C85,45 90,35 85,30 C80,25 70,30 65,35 C60,40 55,35 50,30 C45,35 40,40 35,35 Z"/>
    <circle cx="30" cy="25" r="10" fill="#8e6c88"/>
    <circle cx="70" cy="25" r="10" fill="#8e6c88"/>
    <circle cx="20" cy="60" r="10" fill="#8e6c88"/>
    <circle cx="80" cy="60" r="10" fill="#8e6c88"/>
</svg>
